<svg xmlns="http://www.w3.org/2000/svg" width="1064" height="331" viewBox="0 0 1064 331">
  <g fill="none" fill-rule="evenodd">
    <g transform="translate(1 2)">
      <path fill="#332B5F" d="M171,93.2054968 L171,0.246430824 L171,0.246430824 C168.13107,0.0828581398 165.241495,0 162.333333,0 C160.884189,0 159.43966,0.0205741317 158,0.0614571654 L158,93.3832279 C160.465478,93.1298406 162.967576,93 165.5,93 C167.350342,93 169.184493,93.0693173 171,93.2054968 Z"/>
      <path fill="#3C326F" d="M157.893587,93.3942435 L138.589703,2 L138.589703,2 C132.613677,2.88808181 126.744182,4.10537145 121,5.63296793 L140.396132,97.4639597 C145.941308,95.417202 151.80542,94.0289994 157.893573,93.3942449 Z"/>
      <path fill="#4D408F" d="M140.233891,97.5240658 L85.5248948,20.304596 C74.8722267,26.0353161 64.9407845,32.8996687 55.8936544,40.7307733 L110.677635,118.056081 C118.576823,108.936411 128.713507,101.807807 140.233891,97.5240658 Z"/>
      <path fill="#090710" d="M110.771777,117.947609 L33.902799,65 L33.902799,65 C31.1146324,68.6563185 28.4772639,72.4342973 26,76.3246097 L102.738425,129.182293 C105.05995,125.179052 107.753504,121.418388 110.771777,117.947609 Z"/>
      <path fill="#221C3F" d="M102.849907,128.990729 L16.9666882,87 C15.5720445,89.6669301 14.2489627,92.3773787 13,95.1287827 L98.7857218,137.071843 C99.9751484,134.284111 101.334199,131.586084 102.849907,128.990729 Z"/>
      <path fill="#45397F" d="M98.8978196 136.810542L7.84240985 111 7.84240985 111C6.38080577 115.292363 5.09711359 119.66557 4 124.111053L94.6999042 149.820824C95.6938775 145.31221 97.1075347 140.961097 98.8978196 136.810542zM94.6301678 150.140597L.0783858337 157.599874C.0262566415 159.258174 0 160.922911 0 162.593662 0 174.407277 1.31274789 185.920255 3.80301306 197L3.80301306 197 97.1154382 189.638498C94.4501179 182.087635 93 173.963164 93 165.5 93 160.22996 93.5622967 155.091252 94.6301678 150.140597z"/>
      <path fill="#110E20" d="M97.361488,190.324469 L20.5557956,243.012292 C25.7472044,252.578403 31.848668,261.567411 38.7436949,269.856658 L38.7436949,269.856658 L115.015943,217.534772 C107.237583,209.986795 101.146152,200.710082 97.361488,190.324469 Z"/>
      <path fill="#000" d="M115.226589,217.738356 L75,301.511238 L75,301.511238 C86.2671036,308.806587 98.4892683,314.715095 111.433394,319 L151.022672,236.554336 C137.281381,233.76959 124.950393,227.098638 115.226587,217.738358 Z"/>
      <path fill="#2B244F" d="M152.167954,236.776807 L159.890519,325.984443 L159.890519,325.984443 C160.639765,325.994803 161.390245,326 162.141926,326 C174.110537,326 185.774649,324.68243 197,322.18298 L189.364464,233.980669 C181.891199,236.584723 173.860877,238 165.5,238 C160.945701,238 156.489483,237.580066 152.167954,236.776807 Z"/>
      <path fill="#4D408F" d="M190.830418,233.451987 L235.060344,311 C242.002781,307.513137 248.663903,303.538673 255,299.120855 L255,299.120855 L210.98902,221.956719 C204.983957,226.801305 198.190122,230.707363 190.830418,233.451987 Z"/>
      <path fill="#3C326F" d="M212.063424,221.072878 L275.019526,284 C278.488286,280.788459 281.818435,277.429462 285,273.932975 L285,273.932975 L221.988106,210.950088 C219.016563,214.638615 215.691146,218.030068 212.063424,221.072878 Z"/>
      <path fill="#110E20" d="M222.726393,210.018198 L299.523526,254 L299.523526,254 C303.79369,247.724218 307.633198,241.136346 311,234.278093 L233.743865,190.033421 C231.129756,197.303951 227.3868,204.036008 222.726393,210.018198 Z"/>
      <path fill="#1A1530" d="M234.107695,188.99672 L319.266622,204 C321.570801,195.328097 323.170255,186.369411 324,177.188871 L237.918089,162.022979 C237.972492,163.175152 238,164.334364 238,165.5 C238,173.723904 236.630715,181.627993 234.107695,188.99672 Z"/>
      <path fill="#45397F" d="M237.837644,160.609266 L325.689097,149.734263 L325.689097,149.734263 C325.411221,146.565931 325.045194,143.42459 324.593581,140.312659 L236.591307,151.206332 C237.204919,154.275122 237.624796,157.413858 237.837642,160.609243 Z"/>
      <path fill="#1A1530" d="M236.592023,151.209911 L319,113.877965 L319,113.877965 C314.908596,100.797772 309.195575,88.4276671 302.094679,77 L217.730301,115.218223 C227.137313,124.987458 233.829317,137.389452 236.592023,151.209911 Z"/>
      <path fill="#1A1530" d="M217.942503,115.43952 L275,45.6322242 C269.529758,40.3575889 263.693398,35.4659501 257.53325,31 L199.813092,101.618031 C206.571204,105.255664 212.685898,109.934384 217.942503,115.43952 Z"/>
      <path fill="#332B5F" d="M195.374338,99.4215789 L224,11.7584026 L224,11.7584026 C218.357283,9.53105917 212.561531,7.60494424 206.632787,6 L177.879895,94.052803 C184.008851,95.1072957 189.874673,96.9312296 195.374338,99.4215789 Z"/>
      <path fill="#110E20" d="M177.273227,93.9510814 L191,1.7307941 C189.303671,1.46379647 187.598999,1.22007858 185.886365,1 L172.147624,93.3006895 C173.874388,93.4576579 175.583622,93.6751674 177.273227,93.9510814 Z"/>
      <path fill="#221C3F" d="M199.081341,101.229547 L240.941129,19.0750876 C239.630967,18.3551327 238.309718,17.652793 236.977702,16.9683885 L195.041891,99.272052 C196.411355,99.8838472 197.758364,100.536872 199.081341,101.229547 Z"/>
    </g>
    <path fill="#030303" d="M497.985961,106.04065 C495.319755,102.170035 491.753758,99.3338505 487.287863,97.5320122 C482.821967,95.7301739 478.12285,94.8292683 473.190368,94.8292683 C470.257542,94.8292683 467.42474,95.162937 464.691879,95.8302846 C461.959018,96.4976321 459.492814,97.5653721 457.293194,99.0335366 C455.093574,100.501701 453.327239,102.403613 451.994136,104.739329 C450.661033,107.075046 449.994491,109.844496 449.994491,113.047764 C449.994491,117.852666 451.660845,121.523023 454.993603,124.058943 C458.32636,126.594864 462.458918,128.797077 467.391399,130.66565 C472.32388,132.534223 477.722867,134.336035 483.58852,136.071138 C489.454174,137.806242 494.85316,140.208657 499.785641,143.278455 C504.718123,146.348254 508.85068,150.419013 512.183438,155.490854 C515.516195,160.562695 517.182549,167.302803 517.182549,175.711382 C517.182549,183.319144 515.782812,189.959152 512.983296,195.631606 C510.183779,201.30406 506.41782,206.008789 501.685304,209.745935 C496.952788,213.483081 491.45382,216.285899 485.188236,218.154472 C478.922651,220.023045 472.32389,220.957317 465.391754,220.957317 C456.593274,220.957317 448.128197,219.489175 439.996268,216.552846 C431.86434,213.616516 424.865653,208.678219 419,201.737805 L437.996624,183.319106 C441.062761,187.990538 445.095337,191.627528 450.094473,194.230183 C455.09361,196.832838 460.392615,198.134146 465.991648,198.134146 C468.924475,198.134146 471.857257,197.733744 474.790084,196.932927 C477.722911,196.13211 480.389077,194.930902 482.788662,193.329268 C485.188248,191.727634 487.121218,189.692255 488.587632,187.223069 C490.054045,184.753883 490.787241,181.917699 490.787241,178.714431 C490.787241,173.50912 489.120887,169.505095 485.788129,166.702236 C482.455372,163.899376 478.322814,161.530328 473.390333,159.59502 C468.457851,157.659713 463.058865,155.824534 457.193212,154.089431 C451.327558,152.354327 445.928572,149.985279 440.99609,146.982215 C436.063609,143.979152 431.931052,139.975127 428.598294,134.97002 C425.265536,129.964914 423.599183,123.258172 423.599183,114.849593 C423.599183,107.508771 425.098901,101.169065 428.098383,95.8302846 C431.097865,90.4915045 435.03046,86.0537101 439.896286,82.5167683 C444.762112,78.9798265 450.327734,76.3438434 456.593318,74.6087398 C462.858903,72.8736363 469.257701,72.0060976 475.789906,72.0060976 C483.255283,72.0060976 490.487259,73.1405713 497.48605,75.4095528 C504.484841,77.6785344 510.783659,81.4156244 516.382691,86.620935 L497.985961,106.04065 Z M540.921187,121.256098 L563.717135,121.256098 L563.717135,135.670732 L564.117064,135.670732 C567.583132,129.798074 572.248923,125.527114 578.114576,122.857724 C583.98023,120.188334 590.312374,118.853659 597.1112,118.853659 C604.443267,118.853659 611.042028,120.154967 616.907681,122.757622 C622.773335,125.360277 627.772396,128.930533 631.905016,133.468496 C636.037635,138.006459 639.17038,143.345159 641.303345,149.484756 C643.43631,155.624353 644.502777,162.230994 644.502777,169.304878 C644.502777,176.378762 643.369656,182.985403 641.103381,189.125 C638.837106,195.264597 635.671033,200.603297 631.605069,205.14126 C627.539105,209.679223 622.640025,213.249479 616.907681,215.852134 C611.175338,218.454789 604.909848,219.756098 598.111022,219.756098 C593.578472,219.756098 589.579223,219.288961 586.113155,218.354675 C582.647087,217.420388 579.580996,216.219181 576.91479,214.751016 C574.248584,213.282852 571.982342,211.714609 570.115998,210.04624 C568.249654,208.377871 566.716608,206.742894 565.516816,205.14126 L564.916922,205.14126 L564.916922,263 L540.921187,263 L540.921187,121.256098 Z M620.507042,169.304878 C620.507042,165.567732 619.873827,161.964109 618.607379,158.493902 C617.340931,155.023695 615.474615,151.953943 613.008374,149.284553 C610.542134,146.615163 607.576024,144.479683 604.109956,142.878049 C600.643888,141.276415 596.711293,140.47561 592.312053,140.47561 C587.912813,140.47561 583.980218,141.276415 580.51415,142.878049 C577.048082,144.479683 574.081972,146.615163 571.615731,149.284553 C569.149491,151.953943 567.283175,155.023695 566.016727,158.493902 C564.750279,161.964109 564.117064,165.567732 564.117064,169.304878 C564.117064,173.042024 564.750279,176.645647 566.016727,180.115854 C567.283175,183.586061 569.149491,186.655813 571.615731,189.325203 C574.081972,191.994593 577.048082,194.130073 580.51415,195.731707 C583.980218,197.333341 587.912813,198.134146 592.312053,198.134146 C596.711293,198.134146 600.643888,197.333341 604.109956,195.731707 C607.576024,194.130073 610.542134,191.994593 613.008374,189.325203 C615.474615,186.655813 617.340931,183.586061 618.607379,180.115854 C619.873827,176.645647 620.507042,173.042024 620.507042,169.304878 Z M690.637434,134.669715 L691.037363,134.669715 C692.903707,130.66563 696.203088,127.028641 700.935604,123.758638 C705.668119,120.488635 711.766974,118.853659 719.232352,118.853659 C725.631246,118.853659 731.06356,119.921399 735.529455,122.056911 C739.99535,124.192423 743.628001,126.99524 746.427518,130.465447 C749.227034,133.935654 751.226659,137.939679 752.426452,142.477642 C753.626244,147.015605 754.226132,151.753702 754.226132,156.692073 L754.226132,217.353659 L730.230397,217.353659 L730.230397,168.704268 C730.230397,166.034878 730.097088,163.065226 729.830468,159.795224 C729.563847,156.525221 728.863979,153.455468 727.730841,150.585874 C726.597703,147.71628 724.831368,145.313865 722.431783,143.378557 C720.032197,141.443249 716.766144,140.47561 712.633524,140.47561 C708.634215,140.47561 705.26818,141.142947 702.535319,142.477642 C699.802458,143.812337 697.536217,145.614149 695.736528,147.88313 C693.936838,150.152112 692.637083,152.754728 691.837221,155.691057 C691.037359,158.627386 690.637434,161.697138 690.637434,164.900407 L690.637434,217.353659 L666.641699,217.353659 L666.641699,66 L690.637434,66 L690.637434,134.669715 Z M800.360789,177.713415 C801.160651,184.920768 803.960125,190.526403 808.759296,194.530488 C813.558467,198.534573 819.357379,200.536585 826.156204,200.536585 C832.155168,200.536585 837.187557,199.302011 841.253521,196.832825 C845.319485,194.363639 848.885482,191.26052 851.951619,187.523374 L869.148563,200.536585 C863.54953,207.476999 857.28404,212.415297 850.351904,215.351626 C843.419768,218.287955 836.154465,219.756098 828.555778,219.756098 C821.357021,219.756098 814.558298,218.55489 808.159403,216.152439 C801.760508,213.749988 796.228214,210.346567 791.562353,205.942073 C786.896492,201.53758 783.197187,196.232246 780.464325,190.025915 C777.731464,183.819583 776.365054,176.91264 776.365054,169.304878 C776.365054,161.697116 777.731464,154.790173 780.464325,148.583841 C783.197187,142.37751 786.896492,137.072176 791.562353,132.667683 C796.228214,128.263189 801.760508,124.859768 808.159403,122.457317 C814.558298,120.054866 821.357021,118.853659 828.555778,118.853659 C835.221293,118.853659 841.320148,120.021499 846.852526,122.357215 C852.384903,124.692932 857.117348,128.062986 861.050002,132.46748 C864.982656,136.871973 868.048747,142.310774 870.248367,148.784045 C872.447987,155.257316 873.547781,162.698129 873.547781,171.106707 L873.547781,177.713415 L800.360789,177.713415 Z M849.552046,159.695122 C849.418736,152.621238 847.219149,147.04897 842.953219,142.97815 C838.687289,138.907331 832.755069,136.871951 825.156382,136.871951 C817.957625,136.871951 812.258695,138.940697 808.059421,143.078252 C803.860146,147.215807 801.293961,152.754708 800.360789,159.695122 L849.552046,159.695122 Z M895.686703,121.256098 L919.682438,121.256098 L919.682438,136.471545 L920.082367,136.471545 C922.748573,130.865826 926.54786,126.528132 931.480341,123.458333 C936.412823,120.388535 942.078426,118.853659 948.47732,118.853659 C949.943734,118.853659 951.376798,118.987126 952.776556,119.254065 C954.176314,119.521004 955.609379,119.854673 957.075792,120.255081 L957.075792,143.478659 C955.076137,142.944781 953.10984,142.511011 951.17684,142.177337 C949.243841,141.843664 947.344198,141.676829 945.477853,141.676829 C939.87882,141.676829 935.379665,142.711202 931.980252,144.77998 C928.58084,146.848757 925.981328,149.217805 924.181638,151.887195 C922.381949,154.556585 921.182175,157.225935 920.582278,159.895325 C919.982382,162.564715 919.682438,164.566728 919.682438,165.901423 L919.682438,217.353659 L895.686703,217.353659 L895.686703,121.256098 Z M988.813008,177.713415 C989.61287,184.920768 992.412344,190.526403 997.211515,194.530488 C1002.01069,198.534573 1007.8096,200.536585 1014.60842,200.536585 C1020.60739,200.536585 1025.63978,199.302011 1029.70574,196.832825 C1033.7717,194.363639 1037.3377,191.26052 1040.40384,187.523374 L1057.60078,200.536585 C1052.00175,207.476999 1045.73626,212.415297 1038.80412,215.351626 C1031.87199,218.287955 1024.60668,219.756098 1017.008,219.756098 C1009.80924,219.756098 1003.01052,218.55489 996.611622,216.152439 C990.212727,213.749988 984.680433,210.346567 980.014572,205.942073 C975.348711,201.53758 971.649406,196.232246 968.916544,190.025915 C966.183683,183.819583 964.817273,176.91264 964.817273,169.304878 C964.817273,161.697116 966.183683,154.790173 968.916544,148.583841 C971.649406,142.37751 975.348711,137.072176 980.014572,132.667683 C984.680433,128.263189 990.212727,124.859768 996.611622,122.457317 C1003.01052,120.054866 1009.80924,118.853659 1017.008,118.853659 C1023.67351,118.853659 1029.77237,120.021499 1035.30474,122.357215 C1040.83712,124.692932 1045.56957,128.062986 1049.50222,132.46748 C1053.43488,136.871973 1056.50097,142.310774 1058.70059,148.784045 C1060.90021,155.257316 1062,162.698129 1062,171.106707 L1062,177.713415 L988.813008,177.713415 Z M1038.00426,159.695122 C1037.87095,152.621238 1035.67137,147.04897 1031.40544,142.97815 C1027.13951,138.907331 1021.20729,136.871951 1013.6086,136.871951 C1006.40984,136.871951 1000.71091,138.940697 996.51164,143.078252 C992.312365,147.215807 989.74618,152.754708 988.813008,159.695122 L1038.00426,159.695122 Z"/>
  </g>
</svg>
